<?xml version="1.0" encoding="UTF-8"?>
<svg id="Layer_1" data-name="Layer 1" xmlns="http://www.w3.org/2000/svg" viewBox="0 0 160 47">
  <defs>
    <style>
      .cls-1 {
        fill: #2e4a71;
      }

      .cls-2 {
        fill: #23b0ba;
      }
    </style>
  </defs>
  <path class="cls-2" d="M7.75,12.83c.32.15.63.33.93.52.72.43,1.43.89,2.18,1.24,1.32.62,2.69.59,4.08.24-.56-.76-1.1-1.49-1.64-2.22.02-.02.05-.04.07-.06.1.11.21.22.31.33,1.09,1.16,2.32,2.02,3.69,2.62.82.35,1.69.54,2.58.61,1.36.1,4.09,1.07,6.33,2.62,0,.01-.31-.47-.68-.89-1.21-1.39-2.26-2.26-4.25-3.24-.71-.51-1.43-1.01-2.15-1.5-.07-.05-.14-.11-.29-.21.45-.03.82-.05,1.2-.07,0-.03,0-.02.01-.05-.14-.08-.28-.16-.42-.23-1.4-.75-2.89-1.21-4.42-1.55-.66-.14-1.32-.28-1.98-.46-.32-.09-.63-.23-.91-.41-.35-.21-.52-.56-.46-.98.05-.36.12-.73.27-1.06.32-.67.69-1.32,1.05-1.97.05-.08.18-.14.28-.16.44-.07.89-.11,1.38-.17-.43-.68-1.04-.98-1.8-1.13.59-.12,1.11-.27,1.64-.33,1.11-.12,2.23-.17,3.34-.31,1.21-.15,2.31-.58,3.2-1.49.07-.07.13-.15.18-.25-.28.15-.56.32-.85.46-1.14.56-2.35.76-3.59.83-1.06.07-2.12.12-3.19.18-1.54.09-3,.53-4.41,1.16-.39.18-.8.33-1.22.5.48,1.03,1.24,1.41,2.35,1.19-.37.52-.69.98-1.02,1.44-.51.71-1.01,1.42-1.53,2.13-.24.34-.58.6-.96.77-.09.04-.19.06-.29.05-1.49-.12-1.84.02-2.92.65,1.25,2.33,3.22,4.37,6.06,5.58-1.67-1.48-4.21-4.04-4.12-4.8h-.02c.35.04.71.05,1.05.11.32.06.63.18.92.32"/>
  <g>
    <path class="cls-1" d="M1.47,34.42v-14.92h2.35v14.92H1.47Z"/>
    <path class="cls-1" d="M8.51,34.42v-14.92h3.58l4.52,9.34c.1.22.23.5.38.85.15.35.31.71.47,1.09.16.38.3.72.41,1.02h.15c.12-.27.25-.59.39-.93.14-.35.3-.7.46-1.05.16-.35.3-.66.41-.92l4.52-9.38h3.54v14.92h-2.37v-9.6c0-.26,0-.56.01-.89,0-.33.01-.67.02-1,0-.33.01-.62.01-.87h-.15c-.09.2-.19.44-.3.72-.12.28-.23.55-.35.84-.12.28-.23.53-.35.75l-4.82,10.05h-2.32l-4.84-10.05c-.13-.27-.26-.56-.38-.85-.12-.29-.24-.56-.34-.81-.1-.25-.19-.47-.26-.64h-.17c.01.23.03.51.03.83,0,.32.01.65.01.99v10.54h-2.26Z"/>
    <path class="cls-1" d="M32,34.42v-14.92h10.55c.94,0,1.76.2,2.44.61.69.41,1.22.96,1.6,1.65.38.69.56,1.49.56,2.39s-.19,1.7-.56,2.4c-.38.7-.91,1.25-1.6,1.65-.69.4-1.51.6-2.46.6h-8.19v5.62h-2.35ZM34.35,26.79h7.6c.91,0,1.61-.24,2.08-.72.48-.48.72-1.11.72-1.91,0-.54-.11-1-.33-1.4-.22-.4-.53-.71-.94-.92s-.92-.33-1.53-.33h-7.6v5.28Z"/>
    <path class="cls-1" d="M47.14,34.42l7.58-14.92h2.74l7.6,14.92h-2.61l-1.78-3.52h-9.29l-1.78,3.52h-2.45ZM52.33,28.94h7.36l-2.19-4.41c-.09-.17-.2-.4-.33-.68-.13-.28-.26-.58-.4-.89-.14-.31-.27-.59-.39-.85-.12-.25-.21-.43-.27-.53h-.17c-.14.3-.31.65-.49,1.04-.18.39-.35.76-.51,1.11-.16.35-.29.62-.39.8l-2.21,4.41Z"/>
    <path class="cls-1" d="M68.07,34.42v-14.92h2.35v12.83h9.36v2.08h-11.7Z"/>
    <path class="cls-1" d="M81.23,34.42l7.58-14.92h2.74l7.6,14.92h-2.61l-1.78-3.52h-9.29l-1.78,3.52h-2.45ZM86.42,28.94h7.36l-2.19-4.41c-.09-.17-.2-.4-.33-.68-.13-.28-.26-.58-.4-.89-.14-.31-.27-.59-.39-.85-.12-.25-.21-.43-.27-.53h-.17c-.14.3-.31.65-.49,1.04-.18.39-.35.76-.51,1.11-.16.35-.29.62-.39.8l-2.21,4.41Z"/>
  </g>
  <g>
    <path class="cls-2" d="M3.06,44.08c-.15,0-.3-.02-.42-.05s-.24-.09-.33-.18c-.09-.09-.16-.2-.22-.35-.05-.15-.08-.34-.08-.57v-.1h.47v.11c0,.17.02.31.05.42.04.11.1.19.18.23.08.05.2.07.34.07.08,0,.14,0,.2-.03.06-.02.11-.04.16-.08.05-.04.09-.08.12-.14s.06-.12.07-.2c.02-.08.03-.16.03-.26,0-.12-.02-.22-.07-.31-.04-.09-.1-.16-.18-.21s-.16-.11-.25-.15c-.09-.05-.19-.09-.29-.13-.1-.04-.2-.09-.29-.15-.09-.05-.18-.12-.25-.2-.08-.08-.13-.18-.18-.29s-.07-.25-.07-.42c0-.18.03-.34.08-.47.05-.13.13-.24.22-.33s.2-.15.32-.19c.12-.04.25-.06.38-.06.15,0,.29.02.42.06.12.04.23.1.31.18.09.08.15.19.2.33.05.13.07.3.07.49v.1h-.46v-.1c0-.13-.02-.25-.05-.34-.03-.09-.09-.17-.16-.22s-.18-.07-.3-.07c-.09,0-.18.02-.26.05-.08.04-.14.1-.19.18s-.07.2-.07.34c0,.12.02.22.07.31.04.08.1.15.18.21s.16.11.25.15c.09.04.19.09.29.13s.2.09.29.15c.09.06.17.12.25.2.08.08.14.18.18.3s.07.26.07.43c0,.28-.05.5-.14.67-.09.17-.22.29-.38.37-.16.08-.35.12-.56.12Z"/>
    <path class="cls-2" d="M5.26,44.01v-3.89h.48v1.7h1.15v-1.7h.48v3.89h-.48v-1.76h-1.15v1.76h-.48Z"/>
    <path class="cls-2" d="M8.7,44.01v-3.89h.48v3.89h-.48Z"/>
    <path class="cls-2" d="M10.52,44.01v-3.89h1.05c.27,0,.48.05.63.15.15.1.26.24.32.41.06.17.09.37.09.59,0,.24-.04.45-.11.63s-.18.33-.33.43c-.15.1-.34.16-.56.16h-.61v1.51h-.48ZM11,42.08h.51c.21,0,.37-.07.47-.21.1-.14.15-.33.15-.57,0-.17-.02-.31-.06-.42-.04-.11-.11-.2-.2-.25-.09-.05-.22-.08-.38-.08h-.49v1.54Z"/>
    <path class="cls-2" d="M13.72,44.01v-3.89h.48v3.46h1.2v.42h-1.68Z"/>
    <path class="cls-2" d="M16.49,44.01v-3.89h.48v3.89h-.48Z"/>
    <path class="cls-2" d="M18.31,44.01v-3.89h.46l1.07,2.45s.02.06.04.1c.01.04.03.08.04.12.01.04.03.08.04.12h.02c0-.06,0-.13,0-.2,0-.07,0-.12,0-.16v-2.42h.46v3.89h-.45l-1.08-2.47s-.03-.09-.06-.16c-.02-.07-.04-.13-.06-.2h-.02c0,.05,0,.12,0,.19v2.64h-.46Z"/>
    <path class="cls-2" d="M21.77,44.01v-3.89h.48v2.07l1.25-2.07h.5l-.96,1.56,1,2.33h-.53l-.78-1.85-.49.75v1.1h-.48Z"/>
    <path class="cls-2" d="M25.02,44.83v-.25c.05-.02.1-.05.14-.1.04-.05.07-.12.09-.2s.03-.17.03-.27h-.2v-.62h.46v.54c0,.22-.03.4-.08.52-.06.13-.12.22-.2.27-.08.06-.15.09-.23.1Z"/>
    <path class="cls-2" d="M29.14,44.08c-.15,0-.3-.02-.42-.05s-.24-.09-.33-.18c-.09-.09-.16-.2-.22-.35-.05-.15-.08-.34-.08-.57v-.1h.47v.11c0,.17.02.31.05.42.04.11.1.19.18.23.08.05.2.07.34.07.08,0,.14,0,.2-.03.06-.02.11-.04.16-.08.05-.04.09-.08.12-.14s.06-.12.07-.2c.02-.08.03-.16.03-.26,0-.12-.02-.22-.07-.31-.04-.09-.1-.16-.18-.21s-.16-.11-.25-.15c-.09-.05-.19-.09-.29-.13-.1-.04-.2-.09-.29-.15-.09-.05-.18-.12-.25-.2-.08-.08-.13-.18-.18-.29s-.07-.25-.07-.42c0-.18.03-.34.08-.47.05-.13.13-.24.22-.33s.2-.15.32-.19c.12-.04.25-.06.38-.06.15,0,.29.02.42.06.12.04.23.1.31.18.09.08.15.19.2.33.05.13.07.3.07.49v.1h-.46v-.1c0-.13-.02-.25-.05-.34-.03-.09-.09-.17-.16-.22s-.18-.07-.3-.07c-.09,0-.18.02-.26.05-.08.04-.14.1-.19.18s-.07.2-.07.34c0,.12.02.22.07.31.04.08.1.15.18.21s.16.11.25.15c.09.04.19.09.29.13s.2.09.29.15c.09.06.17.12.25.2.08.08.14.18.18.3s.07.26.07.43c0,.28-.05.5-.14.67-.09.17-.22.29-.38.37-.16.08-.35.12-.56.12Z"/>
    <path class="cls-2" d="M32.36,44.08c-.22,0-.4-.04-.56-.11-.16-.08-.28-.21-.37-.39s-.13-.44-.13-.77v-2.68h.48v2.75c0,.28.05.48.14.6.09.13.24.19.44.19s.36-.06.45-.19c.09-.13.14-.33.14-.6v-2.75h.48v2.68c0,.33-.04.58-.13.77s-.21.32-.37.39c-.16.08-.35.11-.57.11Z"/>
    <path class="cls-2" d="M34.74,44.01v-3.89h1.05c.27,0,.48.05.63.15.15.1.26.24.32.41.06.17.09.37.09.59,0,.24-.04.45-.11.63s-.18.33-.33.43c-.15.1-.34.16-.56.16h-.61v1.51h-.48ZM35.22,42.08h.51c.21,0,.37-.07.47-.21.1-.14.15-.33.15-.57,0-.17-.02-.31-.06-.42-.04-.11-.11-.2-.2-.25-.09-.05-.22-.08-.38-.08h-.49v1.54Z"/>
    <path class="cls-2" d="M37.94,44.01v-3.89h1.05c.27,0,.48.05.63.15.15.1.26.24.32.41.06.17.09.37.09.59,0,.24-.04.45-.11.63s-.18.33-.33.43c-.15.1-.34.16-.56.16h-.61v1.51h-.48ZM38.42,42.08h.51c.21,0,.37-.07.47-.21.1-.14.15-.33.15-.57,0-.17-.02-.31-.06-.42-.04-.11-.11-.2-.2-.25-.09-.05-.22-.08-.38-.08h-.49v1.54Z"/>
    <path class="cls-2" d="M41.14,44.01v-3.89h.48v3.46h1.2v.42h-1.68Z"/>
    <path class="cls-2" d="M44.09,44.01v-1.6l-1-2.29h.51l.72,1.73h.03l.73-1.73h.48l-.99,2.29v1.6h-.48Z"/>
    <path class="cls-2" d="M48.94,44.08c-.21,0-.39-.05-.54-.14-.15-.09-.26-.22-.34-.38-.08-.17-.12-.36-.12-.58,0-.25.04-.45.13-.61s.2-.27.35-.33v-.02c-.12-.08-.22-.2-.3-.34-.08-.14-.12-.32-.12-.53,0-.22.04-.41.12-.57s.19-.29.35-.37c.15-.09.33-.13.53-.13s.37.04.51.11c.14.08.25.19.33.35.08.16.12.36.12.6v.07h-.42v-.06c0-.16-.02-.29-.07-.4-.05-.1-.11-.18-.18-.22-.08-.05-.17-.07-.27-.07-.08,0-.15.01-.21.04-.07.02-.12.06-.18.12-.05.05-.09.13-.12.21-.03.09-.05.2-.05.32,0,.15.02.29.07.39.05.11.11.19.19.24s.17.08.27.08h.14v.37h-.15c-.1,0-.19.02-.28.07-.09.04-.16.12-.22.22-.05.1-.08.25-.08.43s.02.32.07.43c.05.11.12.19.2.25.09.05.19.08.3.08.13,0,.23-.03.31-.08.08-.05.14-.14.18-.25s.06-.25.06-.42v-1.08h.78v.37h-.35v.68c0,.26-.04.48-.11.65-.07.18-.18.31-.33.39-.15.09-.34.13-.58.13Z"/>
    <path class="cls-2" d="M53.72,44.08c-.15,0-.3-.02-.42-.05s-.24-.09-.33-.18c-.09-.09-.16-.2-.22-.35-.05-.15-.08-.34-.08-.57v-.1h.47v.11c0,.17.02.31.05.42.04.11.1.19.18.23.08.05.2.07.34.07.08,0,.14,0,.2-.03.06-.02.11-.04.16-.08.05-.04.09-.08.12-.14s.06-.12.07-.2c.02-.08.03-.16.03-.26,0-.12-.02-.22-.07-.31-.04-.09-.1-.16-.18-.21s-.16-.11-.25-.15c-.09-.05-.19-.09-.29-.13-.1-.04-.2-.09-.29-.15-.09-.05-.18-.12-.25-.2-.08-.08-.13-.18-.18-.29s-.07-.25-.07-.42c0-.18.03-.34.08-.47.05-.13.13-.24.22-.33s.2-.15.32-.19c.12-.04.25-.06.38-.06.15,0,.29.02.42.06.12.04.23.1.31.18.09.08.15.19.2.33.05.13.07.3.07.49v.1h-.46v-.1c0-.13-.02-.25-.05-.34-.03-.09-.09-.17-.16-.22s-.18-.07-.3-.07c-.09,0-.18.02-.26.05-.08.04-.14.1-.19.18s-.07.2-.07.34c0,.12.02.22.07.31.04.08.1.15.18.21s.16.11.25.15c.09.04.19.09.29.13s.2.09.29.15c.09.06.17.12.25.2.08.08.14.18.18.3.04.12.06.26.06.43,0,.28-.05.5-.14.67-.09.17-.22.29-.38.37-.16.08-.35.12-.56.12Z"/>
    <path class="cls-2" d="M55.92,44.01v-3.89h1.97v.42h-1.49v1.27h1.31v.42h-1.31v1.35h1.51v.42h-1.99Z"/>
    <path class="cls-2" d="M59.07,44.01v-3.89h1.09c.28,0,.49.05.65.15s.26.23.32.39c.06.16.09.34.09.55,0,.28-.04.51-.13.69s-.21.32-.36.4l.66,1.72h-.51l-.61-1.56h-.72v1.56h-.48ZM59.55,42.03h.58c.21,0,.36-.07.46-.21.09-.14.14-.33.14-.58,0-.15-.02-.28-.05-.38-.04-.1-.1-.18-.19-.23-.09-.05-.22-.08-.4-.08h-.53v1.48Z"/>
    <path class="cls-2" d="M63.02,44.01l-.85-3.89h.5l.5,2.46c.02.07.03.15.05.25.02.09.03.19.05.29s.03.18.04.25h.03s.02-.11.03-.18c.01-.08.03-.17.05-.27.02-.1.04-.21.06-.33l.5-2.46h.49l-.85,3.89h-.58Z"/>
    <path class="cls-2" d="M65.55,44.01v-3.89h.48v3.89h-.48Z"/>
    <path class="cls-2" d="M68.45,44.08c-.29,0-.52-.07-.7-.22s-.31-.37-.39-.67c-.08-.3-.12-.68-.12-1.13,0-.69.11-1.2.32-1.52.21-.32.53-.49.96-.49.25,0,.45.05.61.16.16.11.28.27.37.49.08.22.12.5.12.85h-.46c0-.23-.02-.43-.06-.59-.04-.16-.11-.28-.21-.37-.1-.08-.23-.12-.39-.12s-.3.05-.42.15c-.12.1-.2.26-.26.47-.06.21-.09.49-.09.83v.29c0,.34.03.61.08.82.05.21.14.37.25.46.11.1.25.15.41.15s.29-.04.39-.12c.1-.08.18-.2.23-.35.05-.16.08-.36.08-.6h.45c0,.35-.05.63-.14.85-.09.22-.22.38-.4.48-.17.1-.39.16-.64.16Z"/>
    <path class="cls-2" d="M70.81,44.01v-3.89h1.97v.42h-1.49v1.27h1.31v.42h-1.31v1.35h1.51v.42h-1.99Z"/>
    <path class="cls-2" d="M74.84,44.08c-.15,0-.3-.02-.42-.05s-.24-.09-.33-.18c-.09-.09-.16-.2-.22-.35-.05-.15-.08-.34-.08-.57v-.1h.47v.11c0,.17.02.31.05.42.04.11.1.19.18.23.08.05.2.07.34.07.08,0,.14,0,.2-.03.06-.02.11-.04.16-.08.05-.04.09-.08.12-.14s.06-.12.07-.2c.02-.08.03-.16.03-.26,0-.12-.02-.22-.07-.31-.04-.09-.1-.16-.18-.21-.08-.06-.16-.11-.25-.15-.09-.05-.19-.09-.29-.13-.1-.04-.2-.09-.29-.15-.09-.05-.18-.12-.25-.2-.08-.08-.14-.18-.18-.29s-.06-.25-.06-.42c0-.18.03-.34.08-.47.05-.13.13-.24.22-.33.09-.09.2-.15.32-.19s.25-.06.38-.06c.15,0,.29.02.42.06s.23.1.31.18c.09.08.15.19.2.33.05.13.07.3.07.49v.1h-.46v-.1c0-.13-.02-.25-.05-.34-.03-.09-.09-.17-.16-.22-.08-.05-.18-.07-.3-.07-.09,0-.18.02-.26.05-.08.04-.14.1-.19.18s-.07.2-.07.34c0,.12.02.22.06.31.04.08.1.15.18.21s.16.11.25.15c.09.04.19.09.29.13.1.04.2.09.29.15s.17.12.25.2c.08.08.14.18.18.3.04.12.06.26.06.43,0,.28-.05.5-.14.67-.09.17-.22.29-.38.37-.16.08-.35.12-.56.12Z"/>
  </g>
</svg>