<?xml version="1.0" encoding="UTF-8"?>
<svg id="Layer_1" data-name="Layer 1" xmlns="http://www.w3.org/2000/svg" viewBox="0 0 160 47">
  <defs>
    <style>
      .cls-1 {
        fill: #fff9ef;
      }

      .cls-2 {
        fill: #23b0ba;
      }
    </style>
  </defs>
  <path class="cls-2" d="M7.59,11.11c.32.15.63.33.94.52.72.43,1.44.89,2.19,1.25,1.32.62,2.71.6,4.1.24-.56-.76-1.1-1.5-1.64-2.24.02-.02.05-.04.07-.06.1.11.21.22.31.33,1.1,1.17,2.33,2.03,3.71,2.63.82.36,1.7.55,2.59.61,1.37.1,4.12,1.07,6.37,2.63,0,.01-.31-.47-.68-.89-1.22-1.39-2.28-2.28-4.27-3.26-.71-.51-1.44-1.01-2.16-1.5-.07-.05-.15-.11-.29-.21.45-.03.83-.05,1.21-.07,0-.03,0-.02.01-.05-.14-.08-.28-.16-.42-.23-1.41-.76-2.9-1.22-4.45-1.55-.66-.15-1.33-.28-1.99-.47-.32-.09-.63-.24-.92-.41-.35-.21-.52-.57-.47-.98.05-.36.12-.74.27-1.06.32-.68.69-1.33,1.06-1.98.05-.08.18-.14.29-.16.45-.07.9-.12,1.39-.18-.44-.68-1.04-.99-1.81-1.14.59-.12,1.11-.27,1.64-.33,1.12-.13,2.24-.17,3.36-.31,1.21-.15,2.32-.59,3.22-1.5.07-.07.13-.15.18-.26-.29.16-.57.32-.86.47-1.14.56-2.37.76-3.61.84-1.07.07-2.13.12-3.2.18-1.55.09-3.01.53-4.43,1.17-.4.18-.8.33-1.23.5.48,1.04,1.25,1.42,2.37,1.19-.37.53-.7.99-1.03,1.45-.51.71-1.02,1.43-1.53,2.14-.25.34-.58.61-.96.77-.09.04-.19.06-.29.05-1.49-.13-1.85.02-2.94.66,1.25,2.35,3.24,4.39,6.09,5.61-1.68-1.49-4.23-4.06-4.14-4.83h-.02c.35.04.71.05,1.06.11.33.06.63.18.93.32"/>
  <g>
    <path class="cls-1" d="M1.28,32.81v-15h2.36v15H1.28Z"/>
    <path class="cls-1" d="M8.35,32.81v-15h3.6l4.54,9.39c.1.22.23.5.38.85.15.35.31.71.47,1.09.16.38.3.72.41,1.03h.15c.12-.28.25-.59.39-.94.15-.35.3-.7.46-1.06.16-.36.3-.67.41-.93l4.54-9.43h3.56v15h-2.38v-9.65c0-.26,0-.56.01-.9,0-.33.01-.67.02-1,0-.33.01-.63.01-.87h-.15c-.09.2-.19.44-.31.72-.12.28-.23.56-.35.84-.12.28-.23.53-.35.75l-4.85,10.11h-2.34l-4.87-10.11c-.13-.28-.26-.56-.38-.85-.12-.29-.24-.56-.34-.82-.1-.25-.19-.47-.26-.64h-.17c.01.23.03.51.03.83,0,.32.01.65.01.99v10.6h-2.27Z"/>
    <path class="cls-1" d="M31.97,32.81v-15h10.61c.95,0,1.76.2,2.46.61.69.41,1.23.96,1.6,1.66.38.7.57,1.5.57,2.4s-.19,1.71-.57,2.41c-.38.71-.91,1.26-1.6,1.66-.69.4-1.52.6-2.48.6h-8.23v5.65h-2.36ZM34.33,25.15h7.64c.92,0,1.62-.24,2.1-.72.48-.48.72-1.12.72-1.92,0-.54-.11-1.01-.33-1.41-.22-.4-.53-.71-.95-.93s-.93-.33-1.54-.33h-7.64v5.3Z"/>
    <path class="cls-1" d="M47.19,32.81l7.62-15h2.75l7.64,15h-2.62l-1.79-3.54h-9.34l-1.79,3.54h-2.47ZM52.41,27.31h7.4l-2.2-4.43c-.09-.17-.2-.4-.33-.69-.13-.28-.27-.58-.4-.9-.14-.31-.27-.6-.39-.85-.12-.25-.21-.43-.27-.53h-.17c-.15.31-.31.65-.49,1.05-.18.39-.35.76-.51,1.11-.16.35-.29.62-.39.81l-2.23,4.43Z"/>
    <path class="cls-1" d="M68.23,32.81v-15h2.36v12.9h9.41v2.1h-11.77Z"/>
    <path class="cls-1" d="M81.46,32.81l7.62-15h2.75l7.64,15h-2.62l-1.79-3.54h-9.34l-1.79,3.54h-2.47ZM86.68,27.31h7.4l-2.2-4.43c-.09-.17-.2-.4-.33-.69-.13-.28-.27-.58-.4-.9-.14-.31-.27-.6-.39-.85-.12-.25-.21-.43-.27-.53h-.17c-.15.31-.31.65-.49,1.05-.18.39-.35.76-.51,1.11-.16.35-.29.62-.39.81l-2.23,4.43Z"/>
  </g>
  <g>
    <path class="cls-2" d="M2.87,42.52c-.16,0-.3-.02-.43-.05s-.24-.09-.33-.18c-.09-.09-.17-.21-.22-.36-.05-.15-.08-.34-.08-.58v-.1h.47v.11c0,.17.02.32.05.42.04.11.1.19.18.24.09.05.2.07.34.07.08,0,.14,0,.2-.03.06-.02.11-.04.16-.08.05-.04.09-.08.12-.14s.06-.12.07-.2c.02-.08.03-.16.03-.26,0-.12-.02-.22-.07-.31-.04-.09-.1-.16-.18-.21s-.16-.11-.25-.15c-.09-.05-.19-.09-.29-.13-.1-.04-.2-.09-.29-.15-.09-.05-.18-.12-.25-.2-.08-.08-.14-.18-.18-.29s-.07-.25-.07-.42c0-.18.03-.34.08-.47.05-.13.13-.24.22-.33s.2-.15.32-.19c.12-.04.25-.06.38-.06.16,0,.29.02.42.06.12.04.23.1.32.18.09.08.15.19.2.33.05.13.07.3.07.49v.1h-.47v-.1c0-.13-.02-.25-.05-.34-.03-.09-.09-.17-.17-.22s-.18-.07-.3-.07c-.09,0-.18.02-.26.05-.08.04-.14.1-.19.18s-.07.2-.07.34c0,.12.02.22.07.31.04.08.1.15.18.21s.16.11.25.15c.09.04.19.09.29.13s.2.09.29.15c.09.06.18.13.25.21.08.08.14.18.18.3s.07.26.07.43c0,.28-.05.51-.14.68-.09.17-.22.29-.38.37-.16.08-.35.12-.56.12Z"/>
    <path class="cls-2" d="M5.09,42.46v-3.91h.48v1.71h1.16v-1.71h.48v3.91h-.48v-1.77h-1.16v1.77h-.48Z"/>
    <path class="cls-2" d="M8.55,42.46v-3.91h.48v3.91h-.48Z"/>
    <path class="cls-2" d="M10.38,42.46v-3.91h1.05c.27,0,.49.05.64.15.15.1.26.24.32.42.06.17.09.37.09.6,0,.24-.04.45-.11.64s-.19.33-.34.44c-.15.1-.34.16-.57.16h-.61v1.51h-.48ZM10.86,40.52h.51c.21,0,.37-.07.47-.21.1-.14.15-.33.15-.57,0-.17-.02-.31-.06-.43-.04-.11-.11-.2-.2-.25-.09-.05-.22-.08-.38-.08h-.49v1.55Z"/>
    <path class="cls-2" d="M13.59,42.46v-3.91h.48v3.48h1.21v.43h-1.69Z"/>
    <path class="cls-2" d="M16.38,42.46v-3.91h.48v3.91h-.48Z"/>
    <path class="cls-2" d="M18.2,42.46v-3.91h.46l1.08,2.46s.02.06.04.1c.01.04.03.08.04.12.01.04.03.08.04.12h.02c0-.06,0-.13,0-.2,0-.07,0-.12,0-.16v-2.44h.47v3.91h-.45l-1.08-2.49s-.03-.09-.06-.16c-.02-.07-.04-.13-.06-.2h-.02c0,.05,0,.12,0,.19v2.65h-.47Z"/>
    <path class="cls-2" d="M21.68,42.46v-3.91h.48v2.08l1.25-2.08h.51l-.96,1.57,1.01,2.34h-.53l-.79-1.86-.49.75v1.11h-.48Z"/>
    <path class="cls-2" d="M24.95,43.28v-.25c.05-.02.1-.05.14-.1.04-.05.07-.12.09-.2s.03-.17.03-.27h-.2v-.63h.46v.55c0,.22-.03.4-.09.53-.06.13-.13.22-.2.28-.08.06-.16.09-.23.1Z"/>
    <path class="cls-2" d="M29.09,42.52c-.16,0-.3-.02-.43-.05s-.24-.09-.33-.18c-.09-.09-.17-.21-.22-.36-.05-.15-.08-.34-.08-.58v-.1h.47v.11c0,.17.02.32.05.42.04.11.1.19.18.24.09.05.2.07.34.07.08,0,.14,0,.2-.03.06-.02.11-.04.16-.08.05-.04.09-.08.12-.14s.06-.12.07-.2c.02-.08.03-.16.03-.26,0-.12-.02-.22-.07-.31-.04-.09-.1-.16-.18-.21s-.16-.11-.25-.15c-.09-.05-.19-.09-.29-.13-.1-.04-.2-.09-.29-.15-.09-.05-.18-.12-.25-.2-.08-.08-.14-.18-.18-.29s-.07-.25-.07-.42c0-.18.03-.34.08-.47.05-.13.13-.24.22-.33s.2-.15.32-.19c.12-.04.25-.06.38-.06.16,0,.29.02.42.06.12.04.23.1.32.18.09.08.15.19.2.33.05.13.07.3.07.49v.1h-.47v-.1c0-.13-.02-.25-.05-.34-.03-.09-.09-.17-.17-.22s-.18-.07-.3-.07c-.09,0-.18.02-.26.05-.08.04-.14.1-.19.18s-.07.2-.07.34c0,.12.02.22.07.31.04.08.1.15.18.21s.16.11.25.15c.09.04.19.09.29.13s.2.09.29.15c.09.06.18.13.25.21.08.08.14.18.18.3s.07.26.07.43c0,.28-.05.51-.14.68-.09.17-.22.29-.38.37-.16.08-.35.12-.56.12Z"/>
    <path class="cls-2" d="M32.33,42.52c-.22,0-.4-.04-.56-.11-.16-.08-.28-.21-.37-.39s-.13-.44-.13-.77v-2.7h.48v2.76c0,.28.05.48.14.61.09.13.24.19.44.19s.36-.06.45-.19c.09-.13.14-.33.14-.61v-2.76h.48v2.7c0,.33-.04.59-.13.77s-.21.32-.38.39c-.16.08-.35.11-.57.11Z"/>
    <path class="cls-2" d="M34.73,42.46v-3.91h1.05c.27,0,.49.05.64.15.15.1.26.24.32.42.06.17.09.37.09.6,0,.24-.04.45-.11.64s-.19.33-.34.44c-.15.1-.34.16-.57.16h-.61v1.51h-.48ZM35.21,40.52h.51c.21,0,.37-.07.47-.21.1-.14.15-.33.15-.57,0-.17-.02-.31-.06-.43-.04-.11-.11-.2-.2-.25-.09-.05-.22-.08-.38-.08h-.49v1.55Z"/>
    <path class="cls-2" d="M37.94,42.46v-3.91h1.05c.27,0,.49.05.64.15.15.1.26.24.32.42.06.17.09.37.09.6,0,.24-.04.45-.11.64s-.19.33-.34.44c-.15.1-.34.16-.57.16h-.61v1.51h-.48ZM38.42,40.52h.51c.21,0,.37-.07.47-.21.1-.14.15-.33.15-.57,0-.17-.02-.31-.06-.43-.04-.11-.11-.2-.2-.25-.09-.05-.22-.08-.38-.08h-.49v1.55Z"/>
    <path class="cls-2" d="M41.16,42.46v-3.91h.48v3.48h1.21v.43h-1.69Z"/>
    <path class="cls-2" d="M44.12,42.46v-1.61l-1-2.3h.51l.72,1.74h.03l.73-1.74h.48l-1,2.3v1.61h-.48Z"/>
    <path class="cls-2" d="M49,42.52c-.21,0-.39-.05-.54-.14-.15-.09-.26-.22-.34-.39-.08-.17-.12-.36-.12-.59,0-.25.04-.45.13-.61s.21-.28.35-.34v-.02c-.12-.08-.22-.2-.3-.34-.08-.14-.12-.32-.12-.53,0-.22.04-.42.12-.58s.2-.29.35-.38c.15-.09.33-.13.54-.13s.37.04.51.11c.14.08.25.19.33.35.08.16.12.36.12.61v.07h-.42v-.06c0-.16-.02-.3-.07-.4-.05-.1-.11-.18-.18-.22-.08-.05-.17-.07-.27-.07-.08,0-.15.01-.21.04-.07.02-.13.06-.18.12-.05.06-.09.13-.12.22-.03.09-.05.2-.05.32,0,.16.02.29.07.4.05.11.11.19.19.24s.17.08.27.08h.14v.37h-.15c-.1,0-.19.02-.28.07-.09.04-.16.12-.22.22-.06.1-.08.25-.08.43s.02.32.07.43c.05.11.12.19.2.25.09.05.19.08.3.08.13,0,.23-.03.32-.08.08-.06.14-.14.18-.25s.06-.25.06-.43v-1.09h.78v.37h-.35v.68c0,.26-.04.48-.11.66-.07.18-.18.31-.33.4-.15.09-.34.13-.58.13Z"/>
    <path class="cls-2" d="M53.81,42.52c-.16,0-.3-.02-.43-.05s-.24-.09-.33-.18c-.09-.09-.17-.21-.22-.36-.05-.15-.08-.34-.08-.58v-.1h.47v.11c0,.17.02.32.05.42.04.11.1.19.18.24.09.05.2.07.34.07.08,0,.14,0,.2-.03.06-.02.11-.04.16-.08.05-.04.09-.08.12-.14s.06-.12.07-.2c.02-.08.03-.16.03-.26,0-.12-.02-.22-.07-.31-.04-.09-.1-.16-.18-.21s-.16-.11-.25-.15c-.09-.05-.19-.09-.29-.13-.1-.04-.2-.09-.29-.15-.09-.05-.18-.12-.25-.2-.08-.08-.14-.18-.18-.29s-.07-.25-.07-.42c0-.18.03-.34.08-.47.05-.13.13-.24.22-.33s.2-.15.32-.19c.12-.04.25-.06.38-.06.16,0,.29.02.42.06.12.04.23.1.32.18.09.08.15.19.2.33.05.13.07.3.07.49v.1h-.47v-.1c0-.13-.02-.25-.05-.34-.03-.09-.09-.17-.17-.22s-.18-.07-.3-.07c-.09,0-.18.02-.26.05-.08.04-.14.1-.19.18s-.07.2-.07.34c0,.12.02.22.07.31.04.08.1.15.18.21s.16.11.25.15c.09.04.19.09.29.13s.2.09.29.15c.09.06.18.13.25.21.08.08.14.18.18.3.04.12.07.26.07.43,0,.28-.05.51-.14.68-.09.17-.22.29-.38.37-.16.08-.35.12-.56.12Z"/>
    <path class="cls-2" d="M56.02,42.46v-3.91h1.98v.43h-1.5v1.27h1.31v.43h-1.31v1.36h1.52v.42h-2Z"/>
    <path class="cls-2" d="M59.18,42.46v-3.91h1.1c.28,0,.5.05.65.15s.26.23.32.39c.06.16.09.34.09.55,0,.28-.04.51-.13.69s-.21.32-.36.4l.67,1.72h-.51l-.61-1.57h-.72v1.57h-.48ZM59.66,40.46h.59c.21,0,.37-.07.46-.21.09-.14.14-.33.14-.58,0-.15-.02-.28-.05-.38-.04-.1-.1-.18-.19-.24-.09-.05-.23-.08-.4-.08h-.53v1.49Z"/>
    <path class="cls-2" d="M63.15,42.46l-.86-3.91h.5l.5,2.48c.02.07.03.16.05.25.02.09.03.19.05.29s.03.18.04.25h.03s.02-.11.03-.18c.01-.08.03-.17.05-.27.02-.1.04-.22.06-.33l.5-2.48h.49l-.86,3.91h-.58Z"/>
    <path class="cls-2" d="M65.7,42.46v-3.91h.48v3.91h-.48Z"/>
    <path class="cls-2" d="M68.62,42.52c-.29,0-.52-.07-.7-.22s-.31-.37-.39-.67c-.08-.3-.12-.68-.12-1.14,0-.69.11-1.2.32-1.53.21-.33.54-.49.97-.49.25,0,.45.05.61.16.16.11.29.27.37.49.08.22.12.51.12.86h-.47c0-.23-.02-.43-.06-.59-.04-.16-.11-.28-.21-.37-.1-.08-.23-.13-.39-.13s-.3.05-.42.15c-.12.1-.2.26-.26.47-.06.21-.09.49-.09.84v.3c0,.34.03.61.08.83.06.21.14.37.25.47.11.1.25.15.41.15s.29-.04.39-.12c.1-.08.18-.2.23-.36.05-.16.08-.36.08-.6h.46c0,.35-.05.63-.14.85-.09.22-.22.38-.4.49-.17.1-.39.16-.64.16Z"/>
    <path class="cls-2" d="M70.99,42.46v-3.91h1.98v.43h-1.5v1.27h1.31v.43h-1.31v1.36h1.52v.42h-2Z"/>
    <path class="cls-2" d="M75.04,42.52c-.16,0-.3-.02-.43-.05s-.24-.09-.33-.18c-.09-.09-.16-.21-.22-.36-.05-.15-.08-.34-.08-.58v-.1h.47v.11c0,.17.02.32.05.42.04.11.1.19.18.24.09.05.2.07.34.07.08,0,.14,0,.21-.03.06-.02.11-.04.16-.08.05-.04.09-.08.12-.14s.06-.12.07-.2c.02-.08.03-.16.03-.26,0-.12-.02-.22-.07-.31-.04-.09-.1-.16-.18-.21-.08-.06-.16-.11-.25-.15-.09-.05-.19-.09-.29-.13-.1-.04-.2-.09-.29-.15-.09-.05-.18-.12-.25-.2-.08-.08-.14-.18-.18-.29s-.07-.25-.07-.42c0-.18.03-.34.08-.47.05-.13.13-.24.22-.33.09-.09.2-.15.32-.19s.25-.06.38-.06c.16,0,.29.02.42.06s.23.1.32.18c.09.08.15.19.2.33.05.13.07.3.07.49v.1h-.47v-.1c0-.13-.02-.25-.05-.34-.03-.09-.09-.17-.17-.22-.08-.05-.18-.07-.3-.07-.09,0-.18.02-.26.05-.08.04-.14.1-.19.18s-.07.2-.07.34c0,.12.02.22.07.31.04.08.1.15.18.21s.16.11.25.15c.09.04.19.09.29.13.1.04.2.09.29.15s.18.13.25.21c.08.08.14.18.18.3.04.12.07.26.07.43,0,.28-.05.51-.14.68-.09.17-.22.29-.38.37-.16.08-.35.12-.56.12Z"/>
  </g>
</svg>