<!DOCTYPE svg PUBLIC "-//W3C//DTD SVG 1.1//EN" "http://www.w3.org/Graphics/SVG/1.1/DTD/svg11.dtd">
<!-- Uploaded to: SVG Repo, www.svgrepo.com, Transformed by: SVG Repo Mixer Tools -->
<svg version="1.1" id="Layer_1" xmlns="http://www.w3.org/2000/svg" xmlns:xlink="http://www.w3.org/1999/xlink" viewBox="0 0 512.001 512.001" xml:space="preserve" width="84px" height="84px" fill="#000000">
<g id="SVGRepo_bgCarrier" stroke-width="0"/>
<g id="SVGRepo_tracerCarrier" stroke-linecap="round" stroke-linejoin="round"/>
<g id="SVGRepo_iconCarrier"> <polygon style="fill:#2e4a71;" points="257.886,213.408 256.002,213.408 245.552,241.473 256.002,263.518 325.142,356.823 350.329,338.158 "/> <polygon style="fill:#2e4a71;" points="254.118,213.408 161.675,338.158 186.862,356.823 256.002,263.518 256.002,213.408 "/> <g> <path style="fill:#D4D4D4;" d="M256.041,241.473c-12.306,0-24.244-4.921-32.956-13.635l22.168-22.164 c3.004,3.003,7.004,4.581,11.264,4.444c7.737-0.25,14.172-6.484,14.65-14.19c0.264-4.266-1.187-8.317-4.089-11.403 c-2.905-3.091-6.839-4.793-11.078-4.793h-15.674v-60.774h31.348v32.159c6.88,2.466,13.168,6.534,18.247,11.938 c8.888,9.458,13.34,21.822,12.533,34.814c-1.469,23.67-21.202,42.813-44.924,43.58 C257.036,241.464,256.537,241.473,256.041,241.473z"/> <rect x="219.43" style="fill:#D4D4D4;" width="31.348" height="71.568"/> </g> <rect x="261.227" style="fill:#2e4a71;" width="31.348" height="71.568"/> <path style="fill:#2e4a71;" d="M256.002,61.118l-20.9,34.145l20.9,34.145h15.7c18.379,0,33.333-14.953,33.333-33.333V61.118H256.002 z"/> <path style="fill:#2e4a71;" d="M206.969,61.118v34.956c0,18.38,14.953,33.333,33.333,33.333h15.7V61.118H206.969z"/> <polygon style="fill:#D4D4D4;" points="419.469,329.483 392.224,329.483 371.325,420.741 392.224,512 419.469,512 "/> <polygon style="fill:#2e4a71;" points="364.98,329.483 344.08,420.741 364.98,512 392.224,512 392.224,329.483 "/> <polygon style="fill:#D4D4D4;" points="364.98,329.483 337.736,329.483 316.835,420.741 337.736,512 364.98,512 "/> <polygon style="fill:#2e4a71;" points="310.491,329.483 289.591,420.741 310.491,512 337.736,512 337.736,329.483 "/> <polygon style="fill:#D4D4D4;" points="310.491,329.483 283.246,329.483 262.346,420.741 283.246,512 310.491,512 "/> <polygon style="fill:#2e4a71;" points="256.002,329.483 235.102,420.741 256.002,512 283.246,512 283.246,329.483 "/> <polygon style="fill:#D4D4D4;" points="256.002,329.483 228.758,329.483 207.857,420.741 228.758,512 256.002,512 "/> <polygon style="fill:#2e4a71;" points="201.513,329.483 180.612,420.741 201.513,512 228.758,512 228.758,329.483 "/> <polygon style="fill:#D4D4D4;" points="201.513,329.483 174.268,329.483 153.368,420.741 174.268,512 201.513,512 "/> <polygon style="fill:#2e4a71;" points="147.023,329.483 126.124,420.741 147.023,512 174.268,512 174.268,329.483 "/> <polygon style="fill:#D4D4D4;" points="147.023,329.483 119.779,329.483 98.879,420.741 119.779,512 147.023,512 "/> <rect x="92.532" y="329.481" style="fill:#2e4a71;" width="27.242" height="182.52"/> </g>
</svg>